<?xml version="1.0" standalone="no"?>
<!DOCTYPE svg PUBLIC "-//W3C//DTD SVG 20010904//EN"
 "http://www.w3.org/TR/2001/REC-SVG-20010904/DTD/svg10.dtd">
<svg version="1.0" xmlns="http://www.w3.org/2000/svg"
 width="920.000000pt" height="920.000000pt" viewBox="0 0 920.000000 920.000000"
 preserveAspectRatio="xMidYMid meet">

<g transform="translate(0.000000,920.000000) scale(0.100000,-0.100000)"
fill="#000000" stroke="none">
<path d="M7074 8135 c-350 -56 -777 -197 -1346 -442 -60 -26 -106 -48 -105
-50 2 -1 73 24 158 57 86 32 235 84 332 114 595 188 978 204 1133 49 62 -62
69 -84 68 -223 0 -116 -3 -132 -33 -215 -56 -150 -161 -349 -269 -505 -95
-137 -235 -321 -242 -318 -5 2 -41 46 -81 98 -159 209 -454 475 -694 627 -275
174 -634 309 -977 367 -640 109 -1328 -35 -1874 -392 -326 -213 -577 -466
-794 -798 -74 -114 -179 -314 -221 -421 -13 -35 -26 -63 -29 -63 -6 0 -76 123
-148 260 -28 52 -75 159 -106 237 -200 502 -158 823 128 963 44 22 112 47 150
55 227 47 557 19 946 -80 190 -49 194 -49 110 -15 -273 112 -649 212 -900 239
-300 32 -551 -30 -690 -169 -298 -298 -185 -980 300 -1805 l82 -140 -17 -120
c-35 -241 -31 -572 11 -815 55 -326 189 -684 352 -943 33 -53 57 -99 54 -101
-16 -10 -343 -76 -427 -86 -132 -16 -346 -14 -434 4 -113 24 -196 81 -237 163
-15 30 -19 59 -19 138 1 86 5 113 33 195 66 191 251 486 479 763 35 42 61 77
58 77 -12 0 -209 -197 -325 -325 -337 -370 -490 -633 -492 -846 -2 -175 113
-292 350 -352 78 -20 111 -22 332 -21 179 0 279 5 370 18 108 15 352 61 431
81 23 6 35 -5 116 -97 695 -788 1818 -1084 2828 -747 155 52 400 164 540 248
l80 49 125 -20 c176 -29 566 -31 689 -5 161 35 280 101 356 199 124 158 107
422 -47 759 -23 49 -42 88 -43 87 -2 -2 12 -48 31 -103 87 -262 63 -467 -72
-599 -123 -121 -340 -177 -623 -162 -204 12 -203 -8 -11 184 239 240 376 430
518 720 202 411 299 911 263 1347 -30 360 -119 691 -262 977 -33 65 -59 123
-59 129 0 7 33 53 74 103 347 430 582 813 682 1111 46 139 57 279 29 366 -27
80 -101 151 -191 180 -86 28 -313 35 -440 14z m-2303 -529 c58 -3 140 -11 182
-17 l76 -11 36 -55 c20 -30 34 -57 32 -59 -3 -3 -15 -7 -28 -9 -42 -7 -433
-48 -469 -49 l-35 -1 -3 75 c-4 112 -16 118 -22 10 l-5 -95 -160 -12 c-88 -6
-222 -14 -298 -17 l-137 -5 11 22 c7 12 26 45 44 72 17 28 34 58 38 67 11 30
50 46 155 62 140 22 358 33 348 18 -4 -7 -1 -12 9 -12 9 0 14 4 11 9 -9 14 13
19 64 15 25 -2 93 -6 151 -8z m446 -68 c73 -17 133 -35 133 -38 0 -7 -199 -35
-204 -29 -21 23 -74 99 -69 99 3 0 66 -14 140 -32z m-1203 0 c-4 -7 -22 -31
-39 -53 -18 -22 -34 -44 -36 -50 -2 -5 -15 -27 -29 -47 -25 -38 -25 -38 -94
-38 -38 0 -128 -2 -200 -5 -72 -3 -144 -3 -160 1 l-29 6 32 14 c41 17 44 17
35 2 -4 -7 -4 -10 0 -6 4 3 6 9 4 13 -7 14 233 104 383 144 131 34 143 36 133
19z m1554 -109 c143 -58 294 -132 390 -190 35 -21 66 -39 69 -39 12 0 186
-126 263 -190 90 -74 276 -268 378 -393 l61 -74 -67 -79 c-37 -44 -94 -107
-127 -142 l-59 -63 -24 48 c-13 26 -34 64 -46 83 -13 19 -53 86 -90 149 -52
88 -65 116 -54 122 10 7 8 9 -7 9 -14 1 -38 27 -75 82 -119 177 -364 470 -415
496 -11 5 -45 33 -77 61 -31 28 -62 51 -69 51 -8 0 -2 -8 11 -17 14 -10 45
-39 70 -66 25 -26 75 -79 112 -117 144 -149 402 -495 376 -505 -7 -3 -40 -9
-73 -15 -89 -14 -177 -30 -295 -52 -261 -49 -240 -47 -250 -27 -6 9 -16 42
-24 72 -8 30 -23 72 -34 93 -16 33 -45 107 -47 124 0 3 -13 31 -29 64 -15 32
-29 66 -31 76 -5 28 -128 265 -184 355 l-49 80 101 22 c55 13 103 25 105 28
15 15 76 0 190 -46z m-389 -89 c96 -162 201 -371 228 -455 9 -27 23 -60 31
-73 8 -12 16 -36 18 -52 2 -17 10 -44 19 -60 8 -16 15 -35 15 -42 0 -7 12 -35
25 -63 13 -27 21 -52 17 -56 -7 -6 -170 -26 -232 -27 -19 -1 -109 -8 -200 -16
-182 -16 -265 -23 -417 -32 l-103 -6 -1 333 c0 184 -3 387 -5 452 -3 88 0 117
9 118 6 0 19 2 27 3 8 2 56 6 105 10 117 9 180 16 290 31 50 7 99 12 110 11
13 -1 34 -26 64 -76z m-649 -430 c0 -248 -3 -450 -7 -451 -5 -1 -21 -3 -38 -5
-51 -7 -925 -15 -935 -9 -23 14 151 466 269 698 l87 172 65 6 c77 7 382 28
459 32 30 1 65 3 77 4 l23 3 0 -450z m-1114 397 c-40 -25 -199 -172 -230 -212
-17 -23 -65 -84 -107 -136 -85 -105 -165 -217 -253 -356 -32 -51 -61 -93 -65
-93 -3 0 -28 7 -55 15 -67 20 -71 11 -4 -10 29 -10 54 -19 56 -20 1 -1 -29
-59 -68 -128 -78 -137 -154 -314 -219 -509 l-43 -126 -31 9 c-18 5 -42 9 -55
9 -49 0 -90 30 -133 98 -24 37 -52 77 -63 90 l-20 22 83 166 c162 330 303 528
537 754 176 170 368 309 579 418 44 23 127 31 91 9z m444 8 c0 -2 -29 -57 -64
-123 -72 -136 -156 -317 -156 -338 0 -8 -18 -53 -39 -101 -22 -49 -56 -137
-77 -197 l-37 -109 -176 7 c-188 6 -202 8 -384 33 l-117 16 27 46 c82 142 229
347 325 455 202 225 280 305 301 308 27 4 397 6 397 3z m2378 -717 c16 -24 40
-65 54 -93 13 -27 52 -103 87 -168 l62 -119 -98 -106 c-54 -58 -151 -158 -215
-221 l-118 -116 -117 -26 c-81 -17 -120 -22 -124 -15 -3 6 -12 47 -18 91 -7
44 -26 145 -43 225 -17 80 -32 157 -34 172 -2 16 -22 83 -44 150 -22 67 -40
127 -40 134 0 7 32 16 83 23 169 25 222 34 232 43 5 4 23 8 40 8 17 0 35 4 41
9 5 5 43 14 84 21 41 6 79 15 84 20 23 23 55 10 84 -32z m-663 -173 c14 -47
30 -111 36 -143 6 -31 14 -61 19 -67 15 -20 54 -215 94 -473 2 -12 0 -24 -3
-26 -24 -15 -489 -80 -641 -90 -47 -3 -141 -10 -210 -15 -69 -6 -162 -12 -207
-15 l-83 -5 0 414 0 415 53 1 c28 0 59 2 67 3 8 2 69 6 135 10 184 10 468 36
485 43 14 7 158 28 207 32 19 1 25 -10 48 -84z m-2650 29 c44 -8 107 -16 140
-19 33 -3 78 -8 100 -10 22 -2 99 -7 170 -11 72 -4 132 -8 134 -10 2 -1 -17
-83 -42 -181 -43 -168 -59 -241 -72 -323 -3 -19 -10 -60 -15 -90 -5 -30 -11
-77 -15 -105 -3 -27 -8 -63 -11 -78 l-6 -28 -66 6 c-201 19 -691 94 -742 113
-18 7 -16 15 19 122 63 188 107 295 194 473 78 160 83 167 107 161 14 -3 61
-12 105 -20z m1604 -448 l-2 -415 -76 -4 c-121 -7 -1065 -2 -1077 5 -13 9 1
124 46 368 29 158 48 238 90 380 l19 65 333 -1 c288 -1 532 4 638 14 l30 2 -1
-414z m2403 208 c144 -272 248 -641 266 -946 26 -413 -35 -779 -189 -1141
-182 -426 -493 -814 -844 -1054 l-33 -22 -108 24 c-60 14 -198 52 -306 86
l-197 62 20 50 c11 28 44 134 73 234 29 101 55 186 58 189 3 2 83 20 177 39
249 51 617 144 646 165 6 4 25 12 44 18 33 12 33 11 27 -16 -19 -78 -177 -373
-326 -607 -109 -172 -125 -230 -28 -104 24 31 55 72 69 90 15 19 45 68 67 109
22 41 66 122 97 180 32 58 86 166 120 240 l62 135 53 19 c58 21 54 34 -4 17
-20 -5 -36 -6 -36 -2 0 4 9 34 20 67 18 52 34 116 86 339 25 108 43 247 50
382 l7 131 115 43 c64 23 111 44 105 46 -6 2 -57 -10 -113 -27 -56 -18 -104
-30 -106 -27 -3 3 -10 65 -15 138 -16 222 -67 484 -138 707 l-39 123 26 10
c15 5 36 14 47 19 l20 10 -20 -4 c-84 -18 -81 -19 -92 17 -11 38 -14 34 121
178 39 42 89 99 111 128 22 28 44 50 50 48 5 -2 31 -44 57 -93z m-372 -283 c0
-17 -18 -31 -41 -31 -11 0 22 49 34 50 4 0 7 -9 7 -19z m45 -134 c83 -262 129
-495 144 -727 7 -121 6 -147 -6 -156 -15 -13 -166 -56 -380 -109 -118 -29
-318 -66 -495 -91 l-47 -6 -3 253 -3 254 125 119 c69 65 214 208 322 318 174
176 203 201 250 217 29 10 56 17 60 14 4 -2 19 -41 33 -86z m-4207 -94 c17 -4
21 -10 16 -22 -3 -9 -9 -35 -11 -58 -3 -24 -9 -43 -13 -43 -4 0 -32 38 -62 84
l-55 85 51 -21 c28 -11 61 -22 74 -25z m3477 -58 c-44 -40 -83 -70 -86 -67 -9
10 -19 112 -11 113 4 0 43 8 87 18 44 9 82 15 85 13 2 -2 -31 -36 -75 -77z
m-3316 20 c162 -34 483 -83 674 -103 37 -4 68 -11 68 -17 1 -5 -5 -75 -12
-155 -8 -85 -14 -271 -14 -448 l0 -302 -23 0 c-44 0 -454 424 -672 695 -36 44
-73 89 -83 100 -31 33 -67 93 -67 112 0 15 9 45 35 121 5 15 9 15 94 -3z
m3175 -7 c3 -13 7 -46 11 -74 l5 -52 -77 -69 c-165 -148 -465 -397 -533 -445
-19 -13 -123 -89 -230 -169 -107 -79 -225 -166 -262 -192 l-68 -48 0 469 0
470 138 7 c264 13 632 57 877 104 132 25 134 25 139 -1z m-1789 -123 c138 0
324 2 415 3 l165 4 0 -469 0 -468 -410 0 c-379 0 -602 7 -732 22 l-52 6 -4 86
c-5 95 1 524 8 574 2 18 7 75 10 127 9 144 -11 131 183 122 92 -4 280 -7 417
-7z m-1913 -59 c24 -44 180 -271 229 -333 l48 -62 -6 -150 c-3 -83 -7 -151 -7
-151 -8 0 -206 74 -227 86 -53 27 -51 10 2 -25 50 -32 91 -48 186 -71 40 -10
42 -13 47 -53 21 -191 40 -310 62 -398 26 -102 107 -317 158 -416 14 -29 26
-55 26 -58 0 -11 -29 -4 -153 37 l-129 42 -38 75 c-99 198 -175 433 -216 671
-33 183 -43 485 -24 666 7 65 12 129 12 142 -2 29 13 28 30 -2z m3741 -767
c-8 -8 -363 -49 -398 -47 -11 1 -62 -2 -113 -6 -51 -5 -95 -6 -98 -3 -3 2 26
29 63 58 37 30 73 59 78 65 6 7 64 57 130 112 66 55 170 143 230 197 l110 97
3 -233 c1 -128 -1 -236 -5 -240z m-3312 192 c57 -68 115 -137 128 -153 l23
-29 -23 5 c-13 3 -67 13 -119 22 -140 24 -131 13 -129 160 1 69 5 123 9 122 4
-2 54 -59 111 -127z m4294 -133 c-8 -153 -21 -255 -46 -368 -34 -154 -76 -310
-101 -380 -22 -61 -25 -65 -63 -73 -22 -5 -123 -30 -225 -57 -286 -76 -624
-150 -635 -139 -2 3 5 41 15 86 51 218 111 628 111 755 0 72 1 78 22 82 12 2
98 16 190 30 235 37 571 118 687 165 52 21 53 20 45 -101z m-4250 -57 l140
-28 180 -180 c179 -178 367 -346 477 -426 45 -32 60 -51 68 -80 6 -21 10 -43
8 -48 -4 -13 -110 -59 -306 -133 l-152 -59 -157 34 -156 33 -60 125 c-103 217
-178 475 -192 661 -3 41 -8 87 -10 103 -3 17 0 27 8 27 6 0 75 -13 152 -29z
m3261 -98 c-3 -32 -8 -78 -12 -103 -3 -25 -12 -97 -20 -160 -18 -149 -66 -404
-76 -408 -5 -2 -6 -8 -2 -13 3 -5 1 -9 -3 -9 -5 0 -9 -8 -9 -17 -1 -20 -11
-79 -22 -133 l-8 -35 -149 -22 c-83 -11 -184 -24 -225 -27 -41 -4 -91 -9 -110
-11 -35 -4 -125 -11 -265 -20 -41 -3 -109 -8 -151 -11 -49 -4 -86 -1 -105 6
l-29 12 0 293 0 292 106 68 c59 38 168 113 243 168 75 55 147 104 161 108 14
4 102 15 195 24 94 9 235 24 315 34 80 11 151 19 159 20 11 1 12 -11 7 -56z
m-2176 -45 c102 -6 348 -12 547 -12 l362 -1 -106 -69 c-158 -103 -355 -220
-469 -278 l-101 -52 -135 105 c-234 180 -348 281 -348 308 0 21 3 23 33 18 17
-4 115 -12 217 -19z m935 -613 c0 -140 0 -255 -1 -255 -7 0 -219 129 -318 194
l-119 77 154 84 c85 45 181 99 214 118 33 19 62 36 65 36 3 1 5 -114 5 -254z
m-1085 15 c0 -5 -4 -10 -10 -10 -5 0 -10 5 -10 10 0 6 5 10 10 10 6 0 10 -4
10 -10z m-1051 -121 c30 -11 56 -17 58 -15 2 1 31 -5 66 -14 60 -17 63 -19 99
-81 20 -35 37 -67 37 -71 1 -4 -16 -10 -36 -14 -21 -3 -62 -13 -92 -21 l-55
-16 -23 29 c-29 35 -143 218 -143 229 0 4 8 4 18 0 9 -4 41 -16 71 -26z m379
-86 c50 -10 92 -20 92 -23 0 -3 -37 -18 -82 -33 -63 -20 -84 -24 -90 -14 -4 6
-19 32 -34 56 l-27 44 24 -6 c13 -4 66 -15 117 -24z m1068 -47 c69 -41 120
-77 115 -80 -9 -6 -138 2 -361 20 -142 12 -146 37 -12 92 53 22 105 41 115 41
10 1 74 -32 143 -73z m-396 -36 c0 -5 -4 -10 -10 -10 -5 0 -10 5 -10 10 0 6 5
10 10 10 6 0 10 -4 10 -10z m2154 -42 c-20 -69 -90 -302 -105 -350 -7 -21 -18
-38 -24 -38 -14 0 -212 81 -355 145 -110 49 -402 197 -398 201 3 2 36 5 283
24 146 12 454 46 530 59 90 16 86 18 69 -41z m-2162 3 c19 -7 27 -25 47 -97
13 -49 43 -149 67 -222 24 -73 44 -138 44 -145 0 -17 112 -244 141 -287 13
-19 46 -63 72 -98 27 -34 47 -62 45 -62 -2 0 -37 9 -78 20 -84 22 -100 24
-100 11 0 -8 112 -43 180 -56 19 -4 43 -14 53 -23 12 -11 17 -12 17 -2 0 8 8
10 23 6 54 -13 284 -35 427 -41 85 -3 156 -8 158 -10 2 -2 6 -20 8 -40 l3 -36
-92 6 c-578 38 -1098 233 -1526 573 -100 79 -294 270 -286 282 5 8 99 38 131
42 16 2 41 -23 110 -112 128 -166 388 -420 429 -420 5 0 -45 55 -111 123 -134
137 -210 223 -303 345 -58 77 -61 84 -42 89 12 3 124 40 249 83 221 75 286 89
334 71z m268 -21 c145 -10 184 -13 300 -27 30 -3 123 -44 280 -121 129 -65
237 -120 240 -124 3 -4 7 -158 9 -341 l3 -335 -104 3 c-181 6 -323 16 -424 30
-80 11 -102 18 -117 36 -41 51 -134 212 -184 319 -30 63 -60 126 -68 140 -17
33 -121 355 -130 403 -7 36 -6 38 16 33 13 -3 94 -10 179 -16z m967 -334 c232
-99 384 -158 597 -232 55 -19 101 -36 104 -38 6 -6 -47 -98 -124 -217 l-62
-96 -123 -7 c-68 -4 -146 -9 -174 -11 -27 -3 -108 -6 -180 -7 l-130 -3 1 100
c1 55 2 200 3 323 0 122 3 222 6 222 2 0 39 -15 82 -34z m814 -302 c24 -8 121
-35 214 -59 l170 -44 -135 -64 c-318 -151 -653 -233 -1027 -253 l-133 -7 0 42
0 41 58 1 c31 0 80 2 107 4 28 2 104 6 170 10 112 6 299 23 458 43 100 12 103
29 4 20 -45 -3 -97 -7 -115 -7 l-34 -1 42 48 c46 52 160 218 160 233 0 13 11
11 61 -7z"/>
<path d="M6345 6690 c3 -5 12 -7 20 -3 21 7 19 13 -6 13 -11 0 -18 -4 -14 -10z"/>
<path d="M3865 1810 c-232 -8 -592 -25 -725 -35 -462 -34 -713 -69 -816 -114
-50 -22 -54 -34 -21 -55 97 -64 742 -132 1452 -153 324 -10 1589 -10 1905 0
739 22 1376 92 1457 158 22 19 15 29 -31 49 -93 42 -366 84 -681 105 -44 3
-112 8 -152 11 -476 34 -1812 53 -2388 34z"/>
</g>
</svg>
